%TF.GenerationSoftware,KiCad,Pcbnew,8.0.8*%
%TF.CreationDate,2025-02-16T12:35:09+01:00*%
%TF.ProjectId,step-down,73746570-2d64-46f7-976e-2e6b69636164,rev?*%
%TF.SameCoordinates,Original*%
%TF.FileFunction,Paste,Top*%
%TF.FilePolarity,Positive*%
%FSLAX46Y46*%
G04 Gerber Fmt 4.6, Leading zero omitted, Abs format (unit mm)*
G04 Created by KiCad (PCBNEW 8.0.8) date 2025-02-16 12:35:09*
%MOMM*%
%LPD*%
G01*
G04 APERTURE LIST*
G04 Aperture macros list*
%AMRoundRect*
0 Rectangle with rounded corners*
0 $1 Rounding radius*
0 $2 $3 $4 $5 $6 $7 $8 $9 X,Y pos of 4 corners*
0 Add a 4 corners polygon primitive as box body*
4,1,4,$2,$3,$4,$5,$6,$7,$8,$9,$2,$3,0*
0 Add four circle primitives for the rounded corners*
1,1,$1+$1,$2,$3*
1,1,$1+$1,$4,$5*
1,1,$1+$1,$6,$7*
1,1,$1+$1,$8,$9*
0 Add four rect primitives between the rounded corners*
20,1,$1+$1,$2,$3,$4,$5,0*
20,1,$1+$1,$4,$5,$6,$7,0*
20,1,$1+$1,$6,$7,$8,$9,0*
20,1,$1+$1,$8,$9,$2,$3,0*%
G04 Aperture macros list end*
%ADD10RoundRect,0.067500X-0.067500X-0.067500X0.067500X-0.067500X0.067500X0.067500X-0.067500X0.067500X0*%
%ADD11R,6.520000X1.290000*%
%ADD12RoundRect,0.067500X-0.067500X0.067500X-0.067500X-0.067500X0.067500X-0.067500X0.067500X0.067500X0*%
%ADD13R,0.705600X0.660400*%
%ADD14R,1.020000X2.540000*%
%ADD15R,1.525000X0.700000*%
%ADD16R,1.050000X0.550000*%
%ADD17RoundRect,0.067500X0.067500X-0.067500X0.067500X0.067500X-0.067500X0.067500X-0.067500X-0.067500X0*%
%ADD18R,1.112000X1.803400*%
%ADD19R,0.550000X1.050000*%
%ADD20R,2.400000X3.750000*%
%ADD21R,1.340600X1.905000*%
%ADD22R,1.450000X0.450000*%
%ADD23R,2.740000X3.860000*%
%ADD24RoundRect,0.143100X0.126900X0.156900X-0.126900X0.156900X-0.126900X-0.156900X0.126900X-0.156900X0*%
%ADD25R,1.188200X1.041400*%
%ADD26RoundRect,0.140000X0.170000X-0.140000X0.170000X0.140000X-0.170000X0.140000X-0.170000X-0.140000X0*%
G04 APERTURE END LIST*
D10*
%TO.C,R2*%
X131975000Y-99000000D03*
X132525000Y-99000000D03*
%TD*%
D11*
%TO.C,R4*%
X128000000Y-103015000D03*
X128000000Y-99985000D03*
%TD*%
D12*
%TO.C,R3*%
X141500000Y-100975000D03*
X141500000Y-101525000D03*
%TD*%
D13*
%TO.C,C5*%
X148431300Y-104000000D03*
X149568700Y-104000000D03*
%TD*%
D14*
%TO.C,L1*%
X138000000Y-109000000D03*
X135710000Y-109000000D03*
%TD*%
D15*
%TO.C,M2*%
X143788000Y-98595000D03*
X143788000Y-99865000D03*
X143788000Y-101135000D03*
X143788000Y-102405000D03*
X149212000Y-102405000D03*
X149212000Y-101135000D03*
X149212000Y-99865000D03*
X149212000Y-98595000D03*
%TD*%
D10*
%TO.C,R6*%
X132000000Y-100000000D03*
X132550000Y-100000000D03*
%TD*%
D15*
%TO.C,M1*%
X151788000Y-98595000D03*
X151788000Y-99865000D03*
X151788000Y-101135000D03*
X151788000Y-102405000D03*
X157212000Y-102405000D03*
X157212000Y-101135000D03*
X157212000Y-99865000D03*
X157212000Y-98595000D03*
%TD*%
D10*
%TO.C,R1*%
X131950000Y-104500000D03*
X132500000Y-104500000D03*
%TD*%
D16*
%TO.C,D1*%
X146150000Y-105000000D03*
X143850000Y-105000000D03*
%TD*%
D17*
%TO.C,R5*%
X132500000Y-101275000D03*
X132500000Y-100725000D03*
%TD*%
D18*
%TO.C,Cin1*%
X142453400Y-96000000D03*
X145546600Y-96000000D03*
%TD*%
D19*
%TO.C,D2*%
X141000000Y-109000000D03*
X141000000Y-106700000D03*
%TD*%
D20*
%TO.C,Cout1*%
X154100000Y-95000000D03*
X147900000Y-95000000D03*
%TD*%
D21*
%TO.C,C3*%
X131983100Y-107500000D03*
X129016900Y-107500000D03*
%TD*%
D22*
%TO.C,IC1*%
X134075000Y-98499100D03*
X134075000Y-99149100D03*
X134075000Y-99799100D03*
X134075000Y-100449100D03*
X134075000Y-101099100D03*
X134075000Y-101749100D03*
X134075000Y-102399100D03*
X134075000Y-103049100D03*
X134075000Y-103699100D03*
X134075000Y-104349100D03*
X139925000Y-104349100D03*
X139925000Y-103699100D03*
X139925000Y-103049100D03*
X139925000Y-102399100D03*
X139925000Y-101749100D03*
X139925000Y-101099100D03*
X139925000Y-100449100D03*
X139925000Y-99799100D03*
X139925000Y-99149100D03*
X139925000Y-98499100D03*
D23*
X137000000Y-101424100D03*
%TD*%
D24*
%TO.C,C_INTVCC1*%
X144430000Y-107000000D03*
X143570000Y-107000000D03*
%TD*%
D25*
%TO.C,C1*%
X128817000Y-105000000D03*
X130183000Y-105000000D03*
%TD*%
D13*
%TO.C,C2*%
X131000000Y-98000000D03*
X132137400Y-98000000D03*
%TD*%
D26*
%TO.C,C4*%
X132500000Y-103000000D03*
X132500000Y-102040000D03*
%TD*%
M02*
